<?xml version="1.0" encoding="UTF-8"?>
<svg version="1.1" xmlns="http://www.w3.org/2000/svg" width="518" height="94" viewBox="282 490 518 94">
<path d="M0 0 C0.69953796 -0.00175232 1.39907593 -0.00350464 2.11981201 -0.00531006 C4.45319038 -0.00973969 6.78649378 -0.00678076 9.11987305 -0.00341797 C10.75204991 -0.00409212 12.38422668 -0.00506308 14.0164032 -0.00631714 C17.4573969 -0.00779675 20.89836476 -0.00563643 24.33935547 -0.00097656 C27.83351346 0.00353057 31.32761952 0.00364381 34.82177734 -0.00097656 C67.67663731 -0.04429483 67.67663731 -0.04429483 80.23706055 0.38720703 C80.97563797 0.40081268 81.71421539 0.41441833 82.47517395 0.42843628 C88.56006365 0.71363077 93.60772427 2.94005847 98.30737305 6.73486328 C104.51084889 14.14609548 105.86803507 21.4109226 105.6003418 30.98095703 C104.88929021 38.94078455 102.17519154 44.64847667 96.3190918 50.12939453 C95.3290918 50.62439453 95.3290918 50.62439453 94.3190918 51.12939453 C94.83488586 58.28364928 97.86568266 63.50957065 101.2565918 69.72119141 C101.66135742 70.48882813 102.06612305 71.25646484 102.4831543 72.04736328 C102.85907715 72.73596436 103.235 73.42456543 103.62231445 74.1340332 C104.46066106 76.53480643 104.15161303 77.76639641 103.3190918 80.12939453 C100.56672906 80.29165172 97.82391704 80.41032733 95.0690918 80.50439453 C94.29178711 80.55466797 93.51448242 80.60494141 92.71362305 80.65673828 C90.45037051 80.7147704 88.52108415 80.66122092 86.3190918 80.12939453 C84.03393555 77.65673828 84.03393555 77.65673828 82.3190918 74.12939453 C81.9792627 73.44586914 81.63943359 72.76234375 81.28930664 72.05810547 C80.19766213 69.82724593 79.15901054 67.57798682 78.1315918 65.31689453 C76.20714413 60.38664613 76.20714413 60.38664613 73.3190918 56.12939453 C71.35621414 56.00576156 69.38894021 55.95144014 67.42236328 55.92407227 C66.16113144 55.90412704 64.8998996 55.88418182 63.60044861 55.8636322 C62.21369553 55.84664658 60.82694114 55.82976782 59.44018555 55.81298828 C58.0291329 55.79242528 56.6180865 55.77142898 55.20704651 55.75001526 C51.48675589 55.69472698 47.76640907 55.64534767 44.04602051 55.59716797 C40.25222755 55.54700211 36.45851656 55.49129045 32.66479492 55.43603516 C25.21629656 55.32837102 17.7677302 55.22694456 10.3190918 55.12939453 C10.32694702 56.21208618 10.32694702 56.21208618 10.33496094 57.31665039 C10.35566538 60.56672302 10.36873098 63.81678181 10.3815918 67.06689453 C10.3899707 68.20320312 10.39834961 69.33951172 10.40698242 70.51025391 C10.41181641 72.12963867 10.41181641 72.12963867 10.41674805 73.78173828 C10.42460327 75.28208618 10.42460327 75.28208618 10.43261719 76.81274414 C10.3190918 79.12939453 10.3190918 79.12939453 9.3190918 80.12939453 C6.641778 80.22920667 3.99605005 80.26819329 1.3190918 80.25439453 C0.19374023 80.26019531 0.19374023 80.26019531 -0.9543457 80.26611328 C-6.55429767 80.25600506 -6.55429767 80.25600506 -7.6809082 79.12939453 C-7.78120677 76.70082418 -7.81709245 74.3006784 -7.81030273 71.87158203 C-7.81205505 71.11226379 -7.81380737 70.35294556 -7.81561279 69.57061768 C-7.8200315 67.04852037 -7.81709326 64.52649261 -7.8137207 62.00439453 C-7.81439374 60.25943997 -7.81536376 58.51448549 -7.81661987 56.76953125 C-7.81809687 53.10757558 -7.81594223 49.44564425 -7.8112793 45.78369141 C-7.80558201 41.07894961 -7.808861 36.37426485 -7.81485176 31.66952515 C-7.81845732 28.06485562 -7.81731881 24.46019971 -7.81472397 20.85552979 C-7.81405469 19.12030023 -7.81488317 17.38506945 -7.81720352 15.64984131 C-7.81972997 13.22892966 -7.81588959 10.80811167 -7.81030273 8.38720703 C-7.81232697 7.66301575 -7.8143512 6.93882446 -7.81643677 6.19268799 C-7.78722479 -0.6055643 -6.57624413 0.00412027 0 0 Z M10.3190918 16.12939453 C10.3190918 23.71939453 10.3190918 31.30939453 10.3190918 39.12939453 C19.78528878 39.19712683 29.25132525 39.25218536 38.71770954 39.28483105 C43.11316735 39.30049803 47.50845102 39.32175498 51.90380859 39.35571289 C56.14428104 39.38826977 60.38458581 39.40623977 64.62517357 39.41402626 C66.24434232 39.4195764 67.86350174 39.43041432 69.48259926 39.4465847 C71.74771703 39.4683107 74.01213883 39.47136356 76.27734375 39.4699707 C77.56751907 39.47663254 78.8576944 39.48329437 80.18696594 39.49015808 C83.2848507 39.39833847 83.2848507 39.39833847 85.19670105 37.73310852 C87.56370805 34.35104015 87.48354897 31.85601838 87.5065918 27.75439453 C87.52077148 26.61228516 87.53495117 25.47017578 87.54956055 24.29345703 C87.32922411 21.26849921 86.99870887 19.61640648 85.3190918 17.12939453 C82.35501621 15.64735674 79.69830014 16.01018627 76.39086914 16.01586914 C75.67856644 16.01572311 74.96626373 16.01557709 74.2323761 16.01542664 C71.87322973 16.01612443 69.5141619 16.02391057 67.1550293 16.03173828 C65.52121016 16.03360294 63.88739046 16.03502662 62.25357056 16.036026 C57.94961 16.03984744 53.64568309 16.04967455 49.34173584 16.06072998 C44.95137996 16.07095211 40.56101865 16.07552534 36.1706543 16.08056641 C27.55344962 16.09129714 18.93627877 16.10889094 10.3190918 16.12939453 Z " fill="#E3E3E3" transform="translate(556.680908203125,499.87060546875)"/>
<path d="M0 0 C0.73540009 -0.00817749 1.47080017 -0.01635498 2.22848511 -0.02478027 C4.66395261 -0.04960238 7.0993617 -0.06614696 9.53491211 -0.08056641 C10.36918669 -0.08589008 11.20346127 -0.09121376 12.06301689 -0.09669876 C16.48357092 -0.12342351 20.90409684 -0.14279582 25.32470703 -0.15722656 C28.97079734 -0.17053465 32.61632385 -0.19832962 36.26220703 -0.23925781 C40.67481386 -0.28878751 45.08691157 -0.31337298 49.49978447 -0.32045364 C51.17460119 -0.32713458 52.84940796 -0.34227363 54.52406502 -0.36634445 C63.70901657 -0.49077457 72.06289021 -0.59474905 79.74975586 5.19287109 C87.29022009 12.57605876 87.88488009 21.15628259 88.01538086 31.32568359 C88.02579067 33.56207442 88.02302139 35.79780036 88.01049805 38.03417969 C87.99974388 40.32041744 88.01046224 42.60587536 88.02319336 44.89208984 C88.0218721 46.36995613 88.01931041 47.84782194 88.01538086 49.32568359 C88.013125 50.64455566 88.01086914 51.96342773 88.00854492 53.32226562 C87.62295977 59.08930996 86.71271008 64.67995062 83.12475586 69.38037109 C82.45573242 70.29882812 82.45573242 70.29882812 81.77319336 71.23583984 C75.6894059 77.11996633 70.20940781 78.94654184 61.85522461 78.99365234 C60.90657028 79.01744461 59.95791595 79.04123688 58.98051453 79.06575012 C55.9034261 79.13447318 52.82747478 79.16613017 49.74975586 79.19287109 C47.65160503 79.22419043 45.55346046 79.25593165 43.45532227 79.28808594 C38.08067734 79.35752075 32.70709133 79.37857788 27.33203125 79.37817383 C24.02648665 79.38039513 20.72125908 79.39875043 17.41577148 79.41748047 C15.27319447 79.42040988 13.13061592 79.4223977 10.98803711 79.42333984 C10.02013748 79.43052536 9.05223785 79.43771088 8.05500793 79.44511414 C-2.30041758 79.41082669 -11.61549046 78.80961828 -19.25024414 71.19287109 C-22.65431615 67.08621445 -24.35297779 63.22509396 -24.44311523 57.88012695 C-24.45917816 57.01169662 -24.47524109 56.1432663 -24.49179077 55.2485199 C-24.5365402 51.26228801 -24.57734379 47.27621998 -24.6003418 43.28979492 C-24.61684547 41.19593142 -24.64406091 39.10212294 -24.68237305 37.00854492 C-24.73755676 33.97464041 -24.75908332 30.94205585 -24.77368164 27.90771484 C-24.79635101 26.98441879 -24.81902039 26.06112274 -24.84237671 25.10984802 C-24.82021122 18.18423069 -22.99694359 13.02372797 -19.25024414 7.19287109 C-16.89868164 4.93896484 -16.89868164 4.93896484 -14.62524414 3.63037109 C-13.4921582 2.9478125 -13.4921582 2.9478125 -12.33618164 2.25146484 C-8.19665812 0.15069542 -4.53342398 0.02784695 0 0 Z M26.73706055 14.45532227 C24.15151409 14.4888265 21.56588998 14.51677608 18.98022461 14.53930664 C15.23901944 14.57271026 11.49849197 14.62496552 7.75756836 14.68115234 C6.59822784 14.68754227 5.43888733 14.69393219 4.24441528 14.70051575 C2.63661697 14.73020699 2.63661697 14.73020699 0.99633789 14.76049805 C0.05307648 14.7716011 -0.89018494 14.78270416 -1.86203003 14.79414368 C-4.282693 15.02121835 -4.282693 15.02121835 -6.05389404 16.46160889 C-7.52014901 18.58345584 -7.630008 19.75942911 -7.63842773 22.32543945 C-7.64788422 23.15317368 -7.6573407 23.9809079 -7.66708374 24.83372498 C-7.66101105 25.72439163 -7.65493835 26.61505829 -7.64868164 27.53271484 C-7.65155182 28.45121719 -7.654422 29.36971954 -7.65737915 30.3160553 C-7.65942065 32.25864274 -7.65388481 34.2012507 -7.64135742 36.14379883 C-7.62532328 39.11570321 -7.64119373 42.08624381 -7.66040039 45.05810547 C-7.65841761 46.94547826 -7.65457323 48.83285021 -7.64868164 50.72021484 C-7.65475433 51.60885727 -7.66082703 52.49749969 -7.66708374 53.41307068 C-7.65762726 54.24395706 -7.64817078 55.07484344 -7.63842773 55.9309082 C-7.63604095 56.65910263 -7.63365417 57.38729706 -7.63119507 58.13755798 C-7.10709614 60.96518567 -6.36635031 62.22747869 -4.25024414 64.19287109 C-1.10679847 64.80330121 -1.10679847 64.80330121 2.56030273 64.71044922 C3.24842545 64.7174585 3.93654816 64.72446777 4.64552307 64.73168945 C6.92026112 64.74929571 9.19375516 64.7376388 11.46850586 64.72412109 C13.04887125 64.72681529 14.62923502 64.7306971 16.20959473 64.73571777 C19.52180767 64.74161633 22.83358915 64.73303883 26.14575195 64.71435547 C30.39319958 64.69156513 34.63963629 64.70468638 38.88704681 64.72864532 C42.15044788 64.74309398 45.41360895 64.73850173 48.67701721 64.72813416 C50.24312967 64.72546426 51.80926387 64.72874589 53.37535095 64.73805237 C55.56389136 64.74820337 57.75079094 64.73274063 59.93920898 64.71044922 C61.18480591 64.70726685 62.43040283 64.70408447 63.71374512 64.70080566 C66.80593065 64.47363957 66.80593065 64.47363957 68.64541626 62.39997864 C70.35881918 58.97561125 70.29174384 55.48889001 70.36694336 51.73583984 C70.40454269 50.50405754 70.40454269 50.50405754 70.44290161 49.24739075 C70.49180677 47.51187539 70.53337558 45.77613989 70.56811523 44.0402832 C70.6243542 41.3992336 70.71278764 38.76063524 70.80444336 36.12060547 C70.84806272 34.42989951 70.88979053 32.73914348 70.92944336 31.04833984 C70.95738983 30.26581345 70.9853363 29.48328705 71.01412964 28.67704773 C71.08806759 23.44644844 70.36397176 19.77277197 67.74975586 15.19287109 C64.75211637 14.4176195 62.76336601 14.15650862 59.74975586 14.19287109 C58.43861816 14.18924561 57.12748047 14.18562012 55.77661133 14.18188477 C46.09610457 14.19018284 36.41647628 14.31975102 26.73706055 14.45532227 Z " fill="#E5E5E5" transform="translate(707.250244140625,500.80712890625)"/>
<path d="M0 0 C12.24823067 -0.092796 24.49637731 -0.16381396 36.74488831 -0.20724869 C42.43275393 -0.22809819 48.12037854 -0.25636804 53.80810547 -0.30175781 C59.29999146 -0.34530904 64.79164602 -0.36915694 70.28369141 -0.37950897 C72.3760136 -0.38688365 74.46832354 -0.40128468 76.56054688 -0.42292023 C79.49767143 -0.45207715 82.4338471 -0.45595082 85.37109375 -0.45410156 C86.2306517 -0.46848267 87.09020966 -0.48286377 87.97581482 -0.49768066 C94.84193497 -0.45108991 100.04915378 1.41415392 105.2421875 5.96484375 C105.78101563 6.61582031 106.31984375 7.26679688 106.875 7.9375 C107.42929687 8.58589844 107.98359375 9.23429687 108.5546875 9.90234375 C112.33327381 15.3864001 112.34706857 20.52503002 112.40625 26.98046875 C112.41765015 27.9484993 112.42905029 28.91652985 112.4407959 29.91389465 C112.45965678 31.96053728 112.47274833 34.00724011 112.48046875 36.05395508 C112.49982933 39.16011772 112.56187829 42.26360164 112.625 45.36914062 C112.83491813 64.99074252 112.83491813 64.99074252 106 72 C99.346006 78.00317436 92.65233841 79.3017443 83.8894043 79.24291992 C82.99280594 79.24481827 82.09620758 79.24671661 81.17243958 79.24867249 C78.22294237 79.25236326 75.27369388 79.24170363 72.32421875 79.23046875 C70.27252735 79.2292763 68.2208354 79.22882393 66.16914368 79.2290802 C61.87794559 79.22751849 57.58683131 79.21924981 53.2956543 79.20581055 C47.78281002 79.18876756 42.27005729 79.18499789 36.75718975 79.18575573 C32.52544778 79.18548455 28.29372601 79.1800126 24.06199074 79.17275429 C22.02811651 79.16956337 19.99423999 79.16759923 17.96036339 79.16686058 C15.12807643 79.16470452 12.29588883 79.1559779 9.46362305 79.14526367 C8.61637665 79.14571686 7.76913025 79.14617004 6.89620972 79.14663696 C1.1144789 79.1144789 1.1144789 79.1144789 0 78 C-0.07271741 75.64686445 -0.08370868 73.29166332 -0.0625 70.9375 C-0.05347656 69.64714844 -0.04445313 68.35679687 -0.03515625 67.02734375 C-0.02355469 66.02832031 -0.01195312 65.02929688 0 64 C1.11864441 63.99635437 2.23728882 63.99270874 3.38983154 63.98895264 C13.9255197 63.95203163 24.46091478 63.89429071 34.99637985 63.81609726 C40.41296359 63.77656677 45.8293834 63.74440562 51.24609375 63.72900391 C56.47231623 63.71387405 61.6980882 63.67949384 66.92411041 63.63169098 C68.91918271 63.61683925 70.91431932 63.60895682 72.90944672 63.60811615 C75.70151456 63.60575614 78.49232754 63.57875487 81.28417969 63.54589844 C82.11136505 63.5509288 82.93855042 63.55595917 83.790802 63.56114197 C87.35910538 63.49605686 89.56709003 63.30749423 92.51437378 61.21405029 C94.08802473 58.86881547 94.49764041 57.81122935 94.48583984 55.02929688 C94.4919931 54.26170044 94.49814636 53.494104 94.50448608 52.70324707 C94.49011505 51.88336304 94.47574402 51.063479 94.4609375 50.21875 C94.46002106 49.36825073 94.45910461 48.51775146 94.4581604 47.64147949 C94.45212733 45.84605314 94.43639003 44.05063672 94.41162109 42.25537109 C94.3751291 39.50971317 94.37060175 36.76540631 94.37109375 34.01953125 C94.36126144 32.27342586 94.34960394 30.52732959 94.3359375 28.78125 C94.33371185 27.96136597 94.33148621 27.14148193 94.32919312 26.29675293 C94.2626282 22.29235058 93.95258053 19.48385083 92 16 C90.29324852 15.9845388 90.29324852 15.9845388 88.55201721 15.96876526 C77.85363589 15.87120863 67.15531505 15.76849186 56.4570322 15.66066074 C50.95632032 15.60538501 45.45560318 15.55195771 39.95483398 15.50268555 C34.65098717 15.45511042 29.34720724 15.40277037 24.04343987 15.34705925 C22.01516309 15.32660454 19.98686795 15.30789674 17.95855904 15.29092598 C15.12798516 15.26695068 12.29753895 15.23688713 9.46704102 15.20532227 C8.61971909 15.1995668 7.77239716 15.19381134 6.8993988 15.18788147 C1.11405216 15.11405216 1.11405216 15.11405216 0 14 C-0.07271741 11.64686445 -0.08370868 9.29166332 -0.0625 6.9375 C-0.05347656 5.64714844 -0.04445313 4.35679687 -0.03515625 3.02734375 C-0.02355469 2.02832031 -0.01195312 1.02929688 0 0 Z " fill="#E2E2E2" transform="translate(286,501)"/>
<path d="M0 0 C1.37451471 0.09713415 2.74825994 0.20567321 4.12109375 0.32421875 C4.81912109 0.37255859 5.51714844 0.42089844 6.23632812 0.47070312 C11.41434152 0.86746652 11.41434152 0.86746652 12.55859375 2.01171875 C12.67927346 3.53721485 12.73811979 5.06771663 12.76953125 6.59765625 C12.79789062 7.52835937 12.82625 8.4590625 12.85546875 9.41796875 C12.90734161 11.38913753 12.95167494 13.36051987 12.98828125 15.33203125 C13.01921875 16.2653125 13.05015625 17.19859375 13.08203125 18.16015625 C13.10185059 19.01786621 13.12166992 19.87557617 13.14208984 20.75927734 C13.65306265 23.52260389 14.46855048 24.19068235 16.55859375 26.01171875 C21.41934564 28.55148404 26.42134897 30.74022467 31.45166016 32.92138672 C33.09665461 33.64404511 34.73368262 34.38513646 36.36181641 35.14501953 C45.86127639 39.79864271 45.86127639 39.79864271 56.13867188 40.53198242 C59.46436566 39.26621451 62.4460039 37.7322335 65.55859375 36.01171875 C67.85565636 35.04562149 70.16335171 34.10445648 72.48046875 33.1875 C74.75743843 32.23528899 77.03348149 31.2808592 79.30859375 30.32421875 C80.48164063 29.83888672 81.6546875 29.35355469 82.86328125 28.85351562 C83.97445312 28.38623047 85.085625 27.91894531 86.23046875 27.4375 C87.23174805 27.01895752 88.23302734 26.60041504 89.26464844 26.16918945 C91.69980246 25.2268617 91.69980246 25.2268617 92.55859375 23.01171875 C92.68649986 21.52667659 92.76058338 20.03676259 92.8046875 18.546875 C92.85399414 17.22333008 92.85399414 17.22333008 92.90429688 15.87304688 C92.96536274 14.01118767 93.02267099 12.14920132 93.07617188 10.28710938 C93.11033203 9.40345703 93.14449219 8.51980469 93.1796875 7.609375 C93.21727173 6.39519897 93.21727173 6.39519897 93.25561523 5.15649414 C93.55859375 3.01171875 93.55859375 3.01171875 95.55859375 0.01171875 C98.16914969 -0.23718783 100.51954297 -0.31557895 103.12109375 -0.23828125 C104.16813477 -0.23054688 104.16813477 -0.23054688 105.23632812 -0.22265625 C110.40442195 -0.14245305 110.40442195 -0.14245305 111.55859375 1.01171875 C111.87006882 5.56698789 111.83714782 10.13462226 111.87109375 14.69921875 C111.91459961 16.62024414 111.91459961 16.62024414 111.95898438 18.58007812 C112.03895269 30.40923759 112.03895269 30.40923759 107.55859375 35.01171875 C103.88445549 38.24187678 100.32015276 40.1964564 95.82421875 42.10546875 C95.1867572 42.37887085 94.54929565 42.65227295 93.89251709 42.93395996 C91.86759568 43.80059044 89.83831967 44.65641024 87.80859375 45.51171875 C86.46192662 46.08520314 85.11556946 46.65941599 83.76953125 47.234375 C81.81345648 48.06955299 79.85710386 48.9040089 77.89929199 49.73510742 C73.09464693 51.77488936 68.31963444 53.8723965 63.55859375 56.01171875 C63.52100952 56.99567627 63.52100952 56.99567627 63.48266602 57.99951172 C63.36686115 60.96212058 63.24406489 63.92439906 63.12109375 66.88671875 C63.08177734 67.91925781 63.04246094 68.95179688 63.00195312 70.015625 C62.96005859 71.00175781 62.91816406 71.98789062 62.875 73.00390625 C62.83834229 73.9151123 62.80168457 74.82631836 62.76391602 75.76513672 C62.55859375 78.01171875 62.55859375 78.01171875 61.55859375 80.01171875 C58.91269361 80.03856554 56.26706279 80.05848232 53.62109375 80.07421875 C52.86634766 80.08259766 52.11160156 80.09097656 51.33398438 80.09960938 C49.40865062 80.10824316 47.48323794 80.06396208 45.55859375 80.01171875 C43.84416156 78.29728656 44.32806408 76.00726634 44.2421875 73.6640625 C44.20029297 72.58447266 44.15839844 71.50488281 44.11523438 70.39257812 C44.07591797 69.25626953 44.03660156 68.11996094 43.99609375 66.94921875 C43.95291016 65.80904297 43.90972656 64.66886719 43.86523438 63.49414062 C43.75876536 60.6667968 43.65675168 57.83936137 43.55859375 55.01171875 C42.36363281 54.63789062 41.16867187 54.2640625 39.9375 53.87890625 C33.94563285 51.87888172 28.1584039 49.42315682 22.35620117 46.93310547 C20.49903333 46.1379773 18.63743365 45.35394372 16.77539062 44.5703125 C-1.50180639 36.75550667 -1.50180639 36.75550667 -4.44140625 30.01171875 C-6.05419863 24.77740357 -5.62573477 19.30994728 -5.62890625 13.88671875 C-5.64727539 12.22189453 -5.64727539 12.22189453 -5.66601562 10.5234375 C-5.66794922 9.46511719 -5.66988281 8.40679687 -5.671875 7.31640625 C-5.67598389 6.34687012 -5.68009277 5.37733398 -5.68432617 4.37841797 C-5.26625678 0.30528763 -3.94406452 0.01343041 0 0 Z " fill="#E4E4E4" transform="translate(416.44140625,499.98828125)"/>
<path d="M0 0 C6.58488915 3.14354004 12.99151619 6.595158 19.375 10.125 C20.15987793 10.5566748 20.94475586 10.98834961 21.75341797 11.43310547 C25.34522937 13.43027313 28.80732021 15.38780745 32 18 C31.69921875 19.890625 31.69921875 19.890625 31 22 C29.24401996 22.96406747 27.4718767 23.90494056 25.6484375 24.734375 C22.31592839 26.32690148 19.13302348 28.15311231 15.9375 30 C15.36040283 30.33225586 14.78330566 30.66451172 14.1887207 31.00683594 C13.61984131 31.33458008 13.05096191 31.66232422 12.46484375 32 C11.61575439 32.48726562 11.61575439 32.48726562 10.74951172 32.984375 C9.53094014 33.6917791 8.31948084 34.41151767 7.11376953 35.140625 C2.32003741 38 2.32003741 38 -1 38 C-1.02464928 32.74894558 -1.04283568 27.49792455 -1.05493164 22.24682617 C-1.05997218 20.45905979 -1.06680454 18.67129755 -1.07543945 16.88354492 C-1.0875173 14.31948832 -1.09323094 11.75548603 -1.09765625 9.19140625 C-1.10281754 8.3872377 -1.10797882 7.58306915 -1.11329651 6.75453186 C-1.11349215 4.83598285 -1.06201983 2.91754632 -1 1 C-0.67 0.67 -0.34 0.34 0 0 Z " fill="#DADADB" transform="translate(318,521)"/>
<path d="M0 0 C21.78 0 43.56 0 66 0 C67.32 2.31 68.64 4.62 70 7 C69.67 7.99 69.34 8.98 69 10 C68.44844238 8.29541626 68.44844238 8.29541626 67.88574219 6.55639648 C66.83811873 4.52566411 66.83811873 4.52566411 65 3 C60.31990944 1.89050895 55.61163715 2.04488861 50.828125 2.09765625 C49.4213429 2.0882699 48.01457822 2.07581129 46.60784912 2.06040955 C42.91181428 2.02818072 39.21702003 2.03762551 35.52093506 2.05578613 C31.74689147 2.06694384 27.97316565 2.03864114 24.19921875 2.01367188 C16.79922619 1.97052129 9.4001 1.9713985 2 2 C2.00785522 3.08269165 2.00785522 3.08269165 2.01586914 4.18725586 C2.03657358 7.43732849 2.04963918 10.68738728 2.0625 13.9375 C2.07087891 15.07380859 2.07925781 16.21011719 2.08789062 17.38085938 C2.09272461 19.00024414 2.09272461 19.00024414 2.09765625 20.65234375 C2.10551147 22.15269165 2.10551147 22.15269165 2.11352539 23.68334961 C2 26 2 26 1 27 C-1.69654854 27.07319621 -4.36691458 27.09242537 -7.0625 27.0625 C-7.82111328 27.05798828 -8.57972656 27.05347656 -9.36132812 27.04882812 C-11.24091871 27.0370068 -13.12046899 27.01907078 -15 27 C-15 26.67 -15 26.34 -15 26 C-10.05 26 -5.1 26 0 26 C0 17.42 0 8.84 0 0 Z " fill="#343434" transform="translate(565,553)"/>
<path d="M0 0 C0.66 0.33 1.32 0.66 2 1 C-10.17561482 7.48628208 -22.87803477 12.70040161 -35.60839844 17.98779297 C-37.09127046 18.61539479 -38.5597796 19.2798898 -40 20 C-40.02505615 20.65597168 -40.0501123 21.31194336 -40.07592773 21.98779297 C-40.1917326 24.95040183 -40.31452886 27.91268031 -40.4375 30.875 C-40.47681641 31.90753906 -40.51613281 32.94007813 -40.55664062 34.00390625 C-40.59853516 34.99003906 -40.64042969 35.97617187 -40.68359375 36.9921875 C-40.72025146 37.90339355 -40.75690918 38.81459961 -40.79467773 39.75341797 C-41 42 -41 42 -42 44 C-47.28 44 -52.56 44 -58 44 C-58 43.67 -58 43.34 -58 43 C-53.05 43 -48.1 43 -43 43 C-43 35.08 -43 27.16 -43 19 C-30.29726573 12.91890381 -17.36819173 7.44338502 -4.37573242 2.01220703 C-2.89879059 1.38293966 -1.4359205 0.71796025 0 0 Z " fill="#232323" transform="translate(520,536)"/>
<path d="M0 0 C2.52940738 3.13164723 4.44920018 6.27808042 6 10 C5.578125 12.1875 5.578125 12.1875 5 14 C2.24763726 14.16225719 -0.49517476 14.2809328 -3.25 14.375 C-4.02730469 14.42527344 -4.80460938 14.47554687 -5.60546875 14.52734375 C-7.8803872 14.58567499 -9.79067994 14.55400883 -12 14 C-14.609375 11.1640625 -14.609375 11.1640625 -16 8 C-15.67 7.01 -15.34 6.02 -15 5 C-14.67386719 5.97195313 -14.34773437 6.94390625 -14.01171875 7.9453125 C-12.24089692 11.41319298 -12.24089692 11.41319298 -8.20703125 11.8046875 C-6.74295894 11.85768559 -5.2775223 11.88011798 -3.8125 11.875 C-3.06291016 11.895625 -2.31332031 11.91625 -1.54101562 11.9375 C0.30550787 11.98454518 2.15288219 11.99574887 4 12 C3.71125 11.38511719 3.4225 10.77023437 3.125 10.13671875 C2.75375 9.32847656 2.3825 8.52023437 2 7.6875 C1.443125 6.48673828 1.443125 6.48673828 0.875 5.26171875 C0 3 0 3 0 0 Z " fill="#424242" transform="translate(655,566)"/>
<path d="M0 0 C0.66 0.33 1.32 0.66 2 1 C-0.64 3.64 -3.28 6.28 -6 9 C-6 6 -6 6 -3.5625 3.375 C-2.716875 2.59125 -1.87125 1.8075 -1 1 C-0.67 0.67 -0.34 0.34 0 0 Z " fill="#ABABAB" transform="translate(693,504)"/>
</svg>
